<svg xmlns="http://www.w3.org/2000/svg" viewBox="0 0 349 345">
  <g>
    <path fill="#cc2264" d="M7 3h340v340H7V3z"/>
    <path fill="#fff" d="M105.36 102.7c39.32-39.2 102.85-39.14 142.17.16 11.18 11.16 18.42 22.86 23.8 37.77l8.5-2.98c-11.4-32.65-34.57-55.9-67.27-67.28-57.12-20.04-119.62 10.1-139.7 67.28l8.5 2.98c5.37-14.98 12.62-26.76 24-37.92zm141.97 140.58c-39.37 39.22-103 39.22-142.15 0-11.4-11.3-18.86-23.08-24.04-38.15l-8.5 2.92c5.8 16.46 13.68 29.23 25.9 41.53 42.9 42.84 112.32 42.84 155.2.08 12.44-12.38 20.53-25.3 26.12-41.9l-8.5-2.94c-5.18 15.23-12.63 27.07-24.03 38.46zM98.35 172.83c0-7.36-2.6-13.6-7.73-18.8-10.38-10.32-27.1-10.32-37.5 0-10.32 10.38-10.32 27.1 0 37.5 10.4 10.32 27.12 10.32 37.5 0 5.13-5.2 7.73-11.4 7.73-18.7zm-14.3 12.28c-6.88 6.53-17.63 6.53-24.52 0-6.77-6.82-6.72-17.78.1-24.55 3.35-3.34 7.42-5.03 12.14-5.03 4.8 0 8.9 1.7 12.28 5.08 6.78 6.78 6.78 17.74 0 24.5zm216.73-30.68c-10.34-10.3-27.02-10.3-37.36 0-10.3 10.35-10.3 27.02 0 37.36 10.34 10.28 27.02 10.28 37.36 0 10.3-10.35 10.3-27.02 0-37.37zm-6.44 30.93c-6.8 6.75-17.73 6.75-24.48 0-6.75-6.76-6.8-17.68-.05-24.44 0-.05 0-.05.06-.05 6.54-6.96 17.52-7.28 24.48-.74 6.92 6.55 7.23 17.52.7 24.5-.22.25-.48.46-.7.73z"/>
    <path fill="#fff" d="M139.26 216.84c18.63-18.54 56.44-18.54 75.07 0 .82.9 1.9 1.36 3.17 1.36 2.53 0 4.52-2 4.52-4.52 0-1.27-.45-2.35-1.36-3.26-9.58-10.67-14.1-23.06-13.56-37.44-.55-14.38 3.98-26.87 13.56-37.54 1.8-1.72 1.8-4.6 0-6.33-1.72-1.8-4.6-1.8-6.33 0-18.63 18.55-56.44 18.55-75.07 0-1.72-1.8-4.6-1.8-6.33 0-1.8 1.73-1.8 4.62 0 6.34 9.68 10.67 14.3 23.16 13.75 37.54.54 14.38-4.07 26.86-13.75 37.44-.9.9-1.36 2-1.36 3.26 0 1.27.45 2.35 1.36 3.16 1.72 1.8 4.6 1.8 6.33 0zm11.76-69.55c17.27 6.68 34.28 6.68 51.55 0-6.6 17.27-6.6 34.1 0 51.36-17.27-6.7-34.28-6.7-51.55 0 6.6-17.27 6.6-34.1 0-51.37z"/>
    <path fill="#fff" d="m231.98 191.54 15.28-15.44c1.76-1.8 1.76-4.66 0-6.4l-15.36-15.4-6.45 6.4 7.75 7.7h-20.48v9.05h20.48l-7.64 7.67zm-109.58.09 15.5-15.44a4.651 4.651 0 0 0 0-6.43l-15.5-15.45-6.38 6.38 7.73 7.73h-19.83v9.06h19.83l-7.73 7.75z"/>
  </g>
</svg>
