<svg xmlns="http://www.w3.org/2000/svg"  viewBox="0 0 576 575">
  <g >
    <!-- <path fill="#fff" d="M-393-415h1870.87V907.83H-393z"/> -->
    <path fill="#3b48cc" d="M7 5h560v560H7V5z"/>
    <path fill="#fff" d="M368.8 215.78c0-21.57-42.47-31.65-82.15-31.65-39.68 0-82.16 10.08-82.16 31.65 0 1.2.15 2 .32 3.22v134.67c-.33 22.58 42.3 32.06 82.16 32.06 40 0 82.15-9.88 82.15-31.45v-138.5zm-82-16.74c43.48 0 67.2 11.9 67.2 16.74 0 4.83-23.56 16.73-67.2 16.73-43.8 0-67.17-11.68-67.17-16.72 0-4.84 23.55-16.74 67.18-16.74zM354 354.28c0 4.83-23.56 16.53-67.2 16.53-43.62 0-67.17-11.7-67.17-16.52v-23.6c15.65 8.68 42.15 12.7 67.18 12.7 25.04 0 51.22-4.02 67.2-12.5zm0-42.54c0 4.84-23.56 16.73-67.2 16.73-43.8 0-67.17-11.9-67.17-16.73h.17V283.3c15.8 8.48 42.15 12.5 67.18 12.5 25.02 0 51.2-4.02 67.17-12.3zm0-47.58c0 4.84-23.56 16.93-67.2 16.93-43.8 0-67.17-12.1-67.17-16.94h.17v-29.03c15.97 8.47 41.98 12.3 67.18 12.3 25.2 0 51.7-4.03 67.17-12.7zM125.8 456.82h49.16v14.92h-67.14c-4.15 0-7.5-3.34-7.5-7.5v-67.2h14.9v49.1l56.08-55.93 10.42 10.52zm347.87-59.74v67.15c0 4.2-3.3 7.5-7.5 7.5H399v-14.92h49.18l-55.15-55.28 10.56-10.5 55.15 55.13v-49.07zm0-291.18v67.2h-14.92v-49.3l-55.16 55.17-10.57-10.55 55.07-55.1H399V98.4h67.17c4.2 0 7.5 3.3 7.5 7.48zm-291.95 63.4-10.42 10.4-56.07-55.96v49.2h-14.9v-67.2c0-4.16 3.34-7.5 7.5-7.5h67.13v14.9H125.8zm-9.25 182.6c-45.64-16.37-71.76-41.53-71.76-68.77 0-27.23 26.13-52.26 71.77-68.76l5.07 14.02c-38.72 14.02-61.93 34.38-61.93 54.73 0 20.36 23.22 40.7 61.94 54.74zm224.89 1.64-4.78-14.22c41.43-13.94 66.17-34.92 66.17-56.2 0-21.25-24.74-42.23-66.17-56.32l4.78-14.08c48.5 16.34 76.3 42.1 76.3 70.4 0 28.32-27.8 53.95-76.3 70.42z"/>
  </g>
</svg>