<?xml version="1.0" encoding="UTF-8"?>
<svg width="20px" height="20px" viewBox="0 0 20 20" version="1.1" xmlns="http://www.w3.org/2000/svg" xmlns:xlink="http://www.w3.org/1999/xlink">
    <!-- Generator: Sketch 64 (93537) - https://sketch.com -->
    <g id="Icons/ico-alert" stroke="none" stroke-width="1" fill="none" fill-rule="evenodd">
        <path d="M17.0035,16.0002 L2.9965,16.0002 C2.2175,16.0002 1.7405,15.1112 2.1495,14.4212 L9.1535,2.4972 C9.5425,1.8412 10.4585,1.8412 10.8465,2.4972 L17.8505,14.4212 C18.2595,15.1112 17.7825,16.0002 17.0035,16.0002" id="Fill-2" fill="#9592A8"></path>
        <path d="M10.0001,12.5002 C10.4141,12.5002 10.7501,12.8352 10.7501,13.2502 C10.7501,13.6642 10.4141,14.0002 10.0001,14.0002 C9.5861,14.0002 9.2501,13.6642 9.2501,13.2502 C9.2501,12.8352 9.5861,12.5002 10.0001,12.5002 Z M10.0001,6.0002 C10.4141,6.0002 10.7501,6.3352 10.7501,6.7502 L10.7501,10.1882 C10.7501,10.6032 10.4141,10.9382 10.0001,10.9382 C9.5861,10.9382 9.2501,10.6032 9.2501,10.1882 L9.2501,6.7502 C9.2501,6.3352 9.5861,6.0002 10.0001,6.0002 Z" id="Combined-Shape" fill="#FFFFFF"></path>
    </g>
</svg>
