<svg xmlns="http://www.w3.org/2000/svg"  viewBox="0 0 556 559">
  <g >
    <path fill="#cd2264" d="M5 7h540v540H5V7z"/>
    <path fill="#fff" d="M162.76 393.9c18.38-11.7 24.64-35.46 14.86-55.2-10.95-20.56-36.76-29.02-57.5-18.14L95.1 277.44l41.46-72.14-12.52-7.25-43.4 75.36c-1.57 2.43-1.57 4.84 0 7.26l27.76 48.36c-7.82 8.46-11.73 18.14-11.73 29.42 0 23.37 18.77 42.7 42.24 42.7 3.92 0 7.04-.4 10.56-1.2l22.7 39.5c1.55 2.42 3.9 3.63 6.24 3.63h89.56v-14.1H182.7zm-23.85-6.85c-15.25 0-28.15-12.9-28.15-28.2 0-15.72 12.9-28.22 28.16-28.22 15.65 0 28.16 12.5 28.16 28.2 0 15.33-12.5 27.82-28.15 27.82zM469.37 273.4 442 225.87c16.02-11.7 21.9-32.24 13.68-50.78-9-21.36-34.03-31.43-55.54-22.16l-22.3-38.7c-1.55-2-3.9-3.62-6.24-3.62h-89.56v14.5h85.25L388 161c-12.5 11.68-17.2 28.2-12.12 44.32 7.04 22.57 30.9 35.06 53.58 27.8l25.42 43.94-35.98 62.06 12.5 7.25 37.94-65.7c1.57-2.4 1.57-4.82 0-7.24zm-52.4-53.18c-15.64 0-28.16-12.9-28.16-28.2 0-15.73 12.52-28.22 28.16-28.22 15.25 0 27.77 12.5 27.77 28.2 0 15.32-12.52 28.22-27.77 28.22zm-43.4 173.28c-5.48 0-10.18.8-15.26 2.82l-30.5-51.58-1.57.8 37.54-64.47c1.57-2.42 1.57-5.24 0-7.26l-41.06-72.53c-1.55-2-3.9-3.62-6.25-3.62H240.6l-27.8-47.56c9.78-8.06 14.86-19.35 14.86-32.24 0-23.38-19.16-42.32-42.63-42.32-23.46 0-42.23 18.94-42.23 42.72 0 23.37 19.16 42.3 42.62 42.3 5.48 0 10.17-.8 15.26-2.8l25.8 43.92-41.06 71.73c-1.56 2.43-1.56 4.84 0 7.26l41.46 72.14c1.56 2 3.52 3.22 6.25 3.22h83.3c.4.4 1.18.4 1.57 0l28.16 47.96c-9.78 8.46-14.47 19.34-14.47 32.23 0 23.4 18.78 42.33 42.24 42.33 23.47 0 42.63-18.94 42.63-42.72-.4-23.36-19.16-42.3-42.63-41.9zM185.43 146.07c-15.64 0-28.15-12.9-27.76-28.2 0-15.73 12.9-28.22 28.15-28.22 15.65.4 28.16 12.9 28.16 28.2-.4 15.72-12.9 28.22-28.56 28.22zm126.7 195.85h-74.68l-37.55-64.88 37.56-64.88h74.7l37.54 64.88zm61.8 122.1c-15.64 0-28.16-12.5-28.16-27.8 0-15.72 12.52-28.2 28.16-28.2 15.65 0 28.16 12.48 28.16 28.2 0 15.3-12.5 27.8-28.16 27.8z"/>
  </g>
</svg>
