
718 bytes → 688 bytes 95.82%
<svg xmlns="http://www.w3.org/2000/svg" viewBox="0 0 627 628">
  <g >
    <path fill="#693cc5" d="M1 6h620v620H1V6z"/>
    <path fill="#fff" d="M402 514.5c-1.87 0-3.36-.8-4.85-1.58-2.24-1.6-3.48-3.97-3.48-6.75V125.82c0-2.78 1.5-5.56 3.98-7.15 2.48-1.6 5.6-1.6 8.2-.4l107.56 52.8c2.87 1.2 4.6 3.98 4.6 7.16v292.2c.13 3.98-2.1 7.15-5.7 8.34L404.85 514.5H402zm8.33-375.18v355.33l90.9-30.17v-281.1zM220 514.5h-2.6l-107.5-35.74c-3.47-1.2-5.7-4.76-5.58-8.33v-292.2c0-3.18 1.74-5.96 4.6-7.15l107.48-52.8c2.74-1.2 5.72-1.2 8.33.4 2.48 1.58 3.85 4.36 3.85 7.14v380.34c0 2.78-1.24 5.16-3.48 6.75-1.5 1.2-3.1 1.6-5.1 1.6zm-99.15-49.63 90.96 30.17V139.32l-90.95 44.46z"/>
    <path fill="#fff" d="M393.67 233.33h-24.83V216.8h24.83zm-49.65 0H319.2V216.8H344zm-49.48 0h-24.82V216.8h24.82zm-49.65 0h-24.83V216.8h24.82zM393.67 415.2h-24.83v-16.53h24.83zm-49.65 0H319.2v-16.53H344zm-49.48 0h-24.82v-16.53h24.82zm-49.65 0h-24.83v-16.53h24.82zm29.81-70.76-31.07-26.52c-3.48-2.95-3.88-8.2-.93-11.68.3-.33.58-.6.93-.92l30.98-26.52 10.77 12.54-23.66 20.54 23.67 20.22zm72.67 0-10.74-12.54 23.62-20.02-23.7-20.22 10.73-12.86 31.08 26.45c3.5 2.96 3.9 8.2.94 11.7-.3.3-.58.58-.94.84zm-60.67 17.39 32.83-97.15L335.2 270l-32.84 97.16-15.67-5.33z"/>
  </g>
</svg>