<svg xmlns="http://www.w3.org/2000/svg" xmlns:xlink="http://www.w3.org/1999/xlink" viewBox="0 0 52.916665 52.916668">
  <defs>
    <path id="a" stroke-width="10.5833" d="m179.63414 158.81483.10585 56.61511"/>
    <path id="b" stroke-dasharray="10.5833 10.5833" stroke-width="10.5833" d="m168.93789 159.90716.43128 56.61357"/>
  </defs>
  <g id='stroke-container' fill="none" stroke-linejoin="round">
    <path stroke-width="1.96346" d="m35.285243 21.30352.07478 10.398159m-9.117257-15.532448 9.042477 5.134289m-18.010142.129578 8.967665-5.263867m-8.892851 15.662024-.074812-10.398157m9.117291 15.532448-9.042479-5.134291m18.010142-.129576-8.967663 5.263867"/>
    <circle cx="26.370752" cy="26.932863" r="2.0999494" stroke-width="2.06934"/>
    <g transform="rotate(-59.322 36.30796203 28.79441558) scale(.18551)">
      <circle cx="180.10014" cy="228.42976" r="11.319594" stroke-width="11.1546"/>
      <use xlink:href="#a" stroke-width="10.5833"/>
    </g>
    <g transform="matrix(.09113 .16159 -.16159 .09113 26.6432718 -11.66825257)">
      <circle cx="180.10014" cy="228.42976" r="11.319594" stroke-width="11.1546"/>
      <use xlink:href="#a" stroke-width="10.5833"/>
    </g>
    <g transform="matrix(-.09194 .16113 -.16113 -.09194 59.38037015 7.09012314)">
      <circle cx="180.10014" cy="228.42976" r="11.319594" stroke-width="11.1546"/>
      <use xlink:href="#a" stroke-width="10.5833"/>
    </g>
    <g transform="rotate(180 29.81813757 22.79675783) scale(.1855)">
      <circle cx="180.10014" cy="228.42976" r="11.319594" stroke-width="11.1546"/>
      <use xlink:href="#a" stroke-width="10.5833"/>
    </g>
    <g transform="translate(-4.9480345 7.3004541) scale(.18551)">
      <circle cx="169.56676" cy="228.22322" r="11.319594" stroke-width="11.1546"/>
      <use xlink:href="#b" stroke-dasharray="10.5833 10.5833" stroke-width="10.5833"/>
    </g>
    <g transform="rotate(-124.23 31.1005005 24.44050444) scale(.18551)">
      <circle cx="169.56676" cy="228.22322" r="11.319594" stroke-width="11.1546"/>
      <use xlink:href="#b" stroke-dasharray="10.5833 10.5833" stroke-width="10.5833"/>
    </g>
    <path stroke-dasharray="1.96332 1.96332" stroke-width="1.96332" d="m26.393341 28.960978.01497 10.502931m10.328234-19.116622-8.653152 5.952696"/>
  </g>
</svg>
