<svg xmlns="http://www.w3.org/2000/svg" viewBox="0 0 304 306">
  <path fill="#693cc5" d="M3 2h300v300H3V2z"/>
  <path fill="#fff" d="M253 132.03v8h-35.2c-12.4 0-22.8-.52-35.2-1.75-74.97-8-129.56-40.74-129.56-81.22 0-1.76 0-3.26.4-5.02h8c-.4 1.76-.4 3.26-.4 5.02 0 41.36 70.18 75.06 156.77 75.06zm0 16.01v8h-8.48c-2.8-3.1-5.42-5.5-8.76-8H253zm-89-1.28c-1.33.9-2.44 1.74-3.55 2.73-1.9 1.44-3.44 2.8-5.22 4.48-1.22 1.3-2.44 2.66-3.66 4.02-50.62 4.5-86.03 15.74-98.57 32v-11.63c17.43-14.82 49.84-22.5 81.47-26.45-31.63-3.95-63.93-11.62-81.47-26.44V114c13.54 17.4 53.72 29.1 111 32.76z"/>
  <path fill="#fff" d="M253 148.08v8h-8.48c-2.8-3.1-5.42-5.5-8.76-8zm0-32.02v7.98h-16.58c-79.94 0-138.34-27.17-138.34-64.55v-7.34h8.06v7.33c0 31.98 55.92 56.7 130.28 56.7zm-110.76 57.02c-1.43 3.08-2.32 5.84-3.22 9.15-46.73 13.03-78.2 37.18-78.2 64.88 0 1.74.1 3.16.37 4.9h-7.96c-.27-1.74-.36-3.16-.36-4.9.1-32.74 35.92-60.52 89.36-74.02zm-36.17 71.18V252h-8v-7.74c0-18.53 14.5-34.6 38.94-45.98 0 3 .2 5.53.64 8.5-19.86 9.76-31.57 22.82-31.57 37.48zM199 144c-29.8 0-54 24.2-54 54s24.2 54 54 54 54-24.2 54-54-24.2-54-54-54zm43.96 68.04c-1.4 4.43-3.14 8.1-5.84 12h-20.08V232H230c-17.6 16.1-44.28 16.1-61.9 0h4.87v-8h-12c-2.7-3.88-4.52-7.55-5.93-11.98h17.93v-8h-19.55c-.54-4.2-.54-7.88 0-12.1h23.55v-7.98h-21.82c1.5-4.43 3.24-8.1 5.94-12h44.06V164H168c17.72-16.1 44.28-16.1 62 0h-12.96c-2.27 0-4 1.84-4 4v19.98c0 2.26 1.73 4 4 4h19.98c2.16 0 4-1.74 4-4v-8.64c2.8 6.15 4 11.88 4 18.68 0 2.16-.12 3.9-.44 6.05h-27.54v8zm-9.72-40.07v12h-12v-12z"/>
  <path fill="#fff" d="M185 184h20v8h-20v-8zm20 48h-20c-2.2 0-4-1.8-4-4v-20c0-2.2 1.8-4 4-4h20c2.2 0 4 1.8 4 4v20c0 2.2-1.8 4-4 4zm-16-8h12v-12h-12z"/>
</svg>
