<svg xmlns="http://www.w3.org/2000/svg" viewBox="0 0 660 619">
  <g >
    <path fill="#8c3123" d="M329.94 37.12 619.88 80.2v25.43c0 37.74-129.9 68.23-289.94 68.23S40 143.36 40 105.63V78z"/>
    <path fill="#8c3123" d="M330.1 220.65c120.97 0 224.67-17.68 267.88-42.5l14.4-23.9 5.76-21.97v27.23L523.1 564.57c0 25.32-86.43 45.38-193 45.38-106.6 0-193-20.06-193-45.38L42.02 159.5v-26.74l21.9 46.33c43.78 24.35 146.33 41.55 266.16 41.55z"/>
    <path fill="#e05243" d="M330 10c160.05 0 289.94 30.6 289.94 68.12S490.04 145.96 330 145.96c-160.05 0-289.94-30.05-289.94-67.84C40.06 40.32 169.96 10 330 10z"/>
    <path fill="#e05243" d="M329.97 193.07c149.24 0 271.98-26.13 288.12-60.37L523 537.74c0 25.23-86.43 45.5-193.03 45.5s-193.04-20.27-193.04-45.5L41.86 132.7c16.13 34.24 138.87 60.37 288.1 60.37z"/>
    <path fill="#fff" d="M261.73 231.88H387.3v124.8H261.73v-124.8zm-37.96 168.96c34.18 0 61.92 27.57 61.92 61.53s-27.75 61.53-61.93 61.53c-34.17 0-61.9-27.57-61.9-61.53s27.73-61.53 61.9-61.53zm260.28 120.18h-124l62-114.72 62 114.72z"/>
  </g>
</svg>
